<svg width="152" height="152" viewBox="0 0 152 152" fill="none" xmlns="http://www.w3.org/2000/svg">
<g filter="url(#filter0_d_35_9)">
<rect x="16" y="16" width="120" height="120" rx="19.2" fill="white"/>
<rect x="43.36" y="55.84" width="11.52" height="57.6" rx="5.76" fill="#08605F"/>
<path d="M68.1558 38.3271C65.0124 38.8154 62.86 41.7595 63.3483 44.903C63.8366 48.0465 66.7807 50.1989 69.9242 49.7106L68.1558 38.3271ZM94.36 54.4L89.2248 57.009L94.36 54.4ZM81.64 82.4799L78.4979 77.6525C77.0899 78.5689 76.1522 80.0543 75.9304 81.7195C75.7086 83.3848 76.2249 85.0639 77.344 86.3168L81.64 82.4799ZM91.384 102.037C93.503 104.41 97.1443 104.615 99.5169 102.496C101.89 100.377 102.095 96.7358 99.976 94.3631L91.384 102.037ZM69.04 44.0188C69.9242 49.7106 69.9222 49.7109 69.9202 49.7112C69.9197 49.7113 69.9178 49.7116 69.9166 49.7117C69.9144 49.7121 69.9124 49.7124 69.9107 49.7126C69.9073 49.7131 69.905 49.7135 69.9037 49.7137C69.9012 49.7141 69.903 49.7138 69.9088 49.713C69.9206 49.7113 69.9488 49.7073 69.9927 49.7016C70.0805 49.6902 70.2301 49.6719 70.4343 49.6512C70.8439 49.6095 71.4664 49.5585 72.2456 49.5318C73.8209 49.4778 75.946 49.5267 78.2029 49.912C82.8207 50.7004 87.0284 52.6861 89.2248 57.009L99.4952 51.791C94.9509 42.8466 86.4986 39.6416 80.1416 38.5563C76.9111 38.0047 73.9701 37.9459 71.8511 38.0185C70.7831 38.0551 69.9015 38.1259 69.2687 38.1903C68.9518 38.2225 68.6956 38.2533 68.5079 38.2777C68.414 38.2899 68.3371 38.3005 68.2782 38.3089C68.2487 38.3132 68.2237 38.3168 68.2033 38.3199C68.193 38.3214 68.184 38.3228 68.1761 38.324C68.1721 38.3246 68.1684 38.3251 68.1651 38.3257C68.1634 38.3259 68.1611 38.3263 68.1602 38.3264C68.158 38.3268 68.1558 38.3271 69.04 44.0188ZM89.2248 57.009C91.4528 61.3943 89.9632 65.8859 86.3359 70.4233C84.5982 72.5971 82.6144 74.4316 81.0267 75.7405C80.2425 76.387 79.5784 76.886 79.1233 77.2149C78.8963 77.3789 78.7229 77.4994 78.6145 77.5735C78.5604 77.6105 78.5226 77.6358 78.5027 77.6491C78.4927 77.6558 78.4872 77.6594 78.4863 77.66C78.4859 77.6603 78.4866 77.6598 78.4886 77.6585C78.4895 77.6579 78.4908 77.6571 78.4923 77.6561C78.4931 77.6556 78.4945 77.6547 78.4949 77.6544C78.4963 77.6535 78.4979 77.6525 81.64 82.4799C84.7821 87.3074 84.7838 87.3063 84.7856 87.3052C84.7863 87.3047 84.7882 87.3035 84.7895 87.3026C84.7923 87.3008 84.7954 87.2987 84.7988 87.2965C84.8057 87.2921 84.8137 87.2868 84.823 87.2806C84.8416 87.2684 84.8651 87.2529 84.8932 87.2341C84.9495 87.1965 85.0247 87.146 85.1173 87.0827C85.3023 86.9561 85.5573 86.7785 85.87 86.5525C86.4944 86.1014 87.3556 85.4529 88.3546 84.6294C90.3331 82.9983 92.9468 80.6029 95.3341 77.6166C99.9568 71.8341 104.827 62.2858 99.4952 51.791L89.2248 57.009ZM77.344 86.3168L91.384 102.037L99.976 94.3631L85.936 78.643L77.344 86.3168Z" fill="#229897"/>
<rect x="43.36" y="38.56" width="11.52" height="11.52" rx="5.76" fill="#08605F"/>
<rect x="100.96" y="103.84" width="11.52" height="11.52" rx="5.76" fill="#229897"/>
</g>
<defs>
<filter id="filter0_d_35_9" x="0" y="0" width="152" height="152" filterUnits="userSpaceOnUse" color-interpolation-filters="sRGB">
<feFlood flood-opacity="0" result="BackgroundImageFix"/>
<feColorMatrix in="SourceAlpha" type="matrix" values="0 0 0 0 0 0 0 0 0 0 0 0 0 0 0 0 0 0 127 0" result="hardAlpha"/>
<feOffset/>
<feGaussianBlur stdDeviation="8"/>
<feComposite in2="hardAlpha" operator="out"/>
<feColorMatrix type="matrix" values="0 0 0 0 0 0 0 0 0 0 0 0 0 0 0 0 0 0 0.15 0"/>
<feBlend mode="normal" in2="BackgroundImageFix" result="effect1_dropShadow_35_9"/>
<feBlend mode="normal" in="SourceGraphic" in2="effect1_dropShadow_35_9" result="shape"/>
</filter>
</defs>
</svg>
